<svg xmlns="http://www.w3.org/2000/svg" viewBox="0 0 64 64">
    <title>flag: British Virgin Islands</title>
    <g fill="#2a5f9e">
        <path d="M32 2v30H2c0 16.6 13.4 30 30 30s30-13.4 30-30S48.6 2 32 2z"/>
        <path d="M12 12h21v21H12z"/>
    </g>
    <g fill="#fff">
        <path d="M18.9 8.1V14h-7.3L26 32h6v-7.5z"/>
        <path d="M11 18.9H5c-1.9 4-3 8.4-3 13.1h12V13.9h-3v5"/>
    </g>
    <path fill="#ed4c5c" d="M32 27.1L19 11h-6l17 21h2z"/>
    <path fill="#fff" d="M18.9 5v6H11v3h21V2c-4.7 0-9.1 1.1-13.1 3z"/>
    <path fill="#ed4c5c" d="M32 5H18.9c-6 2.9-11 7.9-13.9 13.9V32h6V11h21V5z"/>
    <path fill="#fff" d="M35 22.2l19.5-.1v17.3s.7 2.6-8.2 6.6c3.2-.3 6.6-3.7 6.6-3.7s1.4-1.8 2.1-.8c.7 1 1.3 1.5 1.8 1.9.5.4.9 1.5.1 2.3-.8.8-2 .9-2.3-.1-.5.3-3.6 4-10 4.2-6.5-.1-10-4.2-10-4.2s-.9 1.4-2.1.3c-1.2-1.4-.3-2.3-.3-2.3s1-.6 1.3-1c.5-.5.6-1.3 1.4-1.3.9.1 1.3.8 1.3.8s3.3 3.4 6.8 3.9c-7.9-3.8-8.2-6.1-8.2-6.7l.2-17.1"/>
    <path fill="#006129" d="M35.5 22.6l18.6-.1v16.7c0 2.2-3.6 4.4-9.3 7.2-5.9-3-9.3-4.9-9.3-7.2V22.6"/>
    <path fill="#ff0000" d="M37.6 25.1l.3-.6-.4-1.1-.2 1.7z"/>
    <path fill="#ff0000" d="M37.6 28.3l.2-.6-.3-1.1-.3 1.7z"/>
    <path fill="#ff0000" d="M37.6 31.5l.2-.7-.4-1-.2 1.7z"/>
    <path fill="#ff0000" d="M39.6 34.9l.3-.6-.4-1.1-.2 1.7z"/>
    <path fill="#ff0000" d="M37.3 37.7l.2-.6-.3-1.1-.3 1.7z"/>
    <path fill="#ff0000" d="M37.3 41l.3-.6-.4-1.1L37 41z"/>
    <path fill="#ff0000" d="M49 25.1l.3-.6-.4-1-.2 1.6z"/>
    <path fill="#ff0000" d="M48.9 28.3l.3-.6-.4-1.1-.2 1.7z"/>
    <path fill="#ff0000" d="M48.8 31.5l.2-.6-.3-1.1-.3 1.7z"/>
    <path fill="#ff0000" d="M48.9 34.7l.3-.6-.4-1.1-.2 1.7z"/>
    <path fill="#ff0000" d="M48.9 37.9l.2-.7-.3-1-.3 1.7z"/>
    <path fill="#ff0000" d="M48.9 41l.3-.6-.4-1-.2 1.6z"/>
    <g fill="#ffc6b5">
        <path d="M44.3 24.4c.1.4-.3.6-.3.8 0 .3.1.8.5.9.6.2.1.8-.1 1.3.6-.1 1.3-.1 1.9-.2-.6-.9-.5-1.6-.5-2.6 0-.7-1.6-1-1.5-.2M44 27.2c-.8.4-.7 1.6-.8 2.4-.1.6-1 1.3-1.3 1.8-.4.6-.9 1-.9 1.7 0 1.2.6.6.9-.1.2-.5-.3-.6.3-1 .5-.4 1.4-.8 1.6-1.4.3-.9.1-2.4.2-3.4"/>
    </g>
    <path fill="#fff" d="M44.7 26.6c.4.8.8 0 1.3 0s.8.4 1.1.8c.5.6-.2.5-.5 1s.3 1.4 0 1.8c-.3.3 0 1.8-.1 2.3 0 .8 0 1.4.2 2.2.4 1.8.7 3.3 1.2 5 .1.4 0 .9.1 1.3s.5.9-.2.9c-.3 0-.3.2-.5.1h-.7c.2 0-.9.4-.7.1-.2.2.1.6-.5.4-.2-.1-.1-.8-.5-.6.1 0 .3.3.1.4-.4.3-.5-.4-.9-.3-.2 0-1.4.5-1.4 0 0-1.1.3-2 .3-3.2v-.5c0-.1-.3-.1-.3-.3 0-.5.1-1 .2-1.5.1-1.1.3-2.2.5-3.2h-.2c-.2-.9.5-2.3.5-3.3 0-.7-.9-1.1-.3-1.8.4-.5.5-1.4 1.3-1.6"/>
    <path fill="#ffc6b5" d="M47.2 27.8c.5 0 .6 3.2.4 3.6-.4.6-.7 1.2-1 1.8-.2.4 0 .9-.1 1.2-.3.9-1.3-.1-.8-.8.3-.4.5-1.1.7-1.6.3-.6.7-1.2.4-1.9-.4-.7-.7-2 .4-2.3"/>
    <path fill="#9c5100" d="M44.3 24.3c1-.1 2 2.6 2.3 1.5.9-2.9-2.8-2.4-2.3-1.5"/>
    <g fill="#f7c600">
        <path d="M37.9 25.6c.4.6.3.1.3.7h1.7c0-.1-.1-.3-.2-.4.7-.1.8-.9 1.4-1l-.4.3c-.4.5 0 .6 0 .2 0-.3.7-.2.6-.7-.2-.3-.9.1-1.1.2-.7.4-1.2-.7-1.6-.1-.2.3-1.3.1-1.6.1.3.5.5.6.9.7M37.8 28.8c.4.6.3 0 .3.7h1.7c0-.1-.1-.3-.2-.4.7-.1.8-.9 1.4-1l-.4.3c-.4.5 0 .6 0 .2 0-.3.7-.2.6-.7-.2-.3-.9.1-1.1.2-.7.4-1.2-.7-1.6-.1-.2.3-1.3.1-1.6.1.3.6.6.7.9.7M37.8 32c.4.5.3.1.3.7h1.7c0-.1-.1-.3-.2-.4.7-.1.8-.9 1.4-1l-.4.3c-.3.5 0 .6 0 .2 0-.3.7-.2.6-.7-.2-.3-.9.1-1.1.2-.7.4-1.2-.7-1.6-.1-.2.3-1.3.1-1.6.1.3.5.6.6.9.7M41.1 34.5c-.4 0-.4.4-.9.4h-1.1c.1.2.1.3.4.4.6.2.7.2.7.8h1.7c0-.1-.1-.3-.2-.4.7-.1.8-.9 1.4-1l-.7.6c-.2.4.8-.3.9-.5.3-.6-.9-.1-1 0-.6.4-.7-.3-1.2-.3M37.6 38.2c.4.6.3.1.3.7h1.7c0-.1-.1-.3-.2-.4.7-.1.8-.9 1.4-1l-.4.3c-.4.5 0 .6 0 .2 0-.3.7-.2.6-.7-.2-.3-.9.1-1.1.2-.7.4-1.2-.7-1.6-.1-.2.3-1.3.1-1.6.1.2.6.5.7.9.7M40.5 41.2c-.3.2-.2.7-.1.5.2-.3.2-.3.5-.5 1-.7-1-.1-1.1-.2-.4 0-.5.1-.8-.2-.5-.5-.4.2-.7.2-.5.1-1.1 0-1.6 0 .1.2.1.3.4.4.6.2.7.2.7.8h1.7c0-.1-.1-.3-.2-.4.7-.1.8-.9 1.4-1 .3.1-.2.4-.2.4M49.3 25.6c.4.6.3 0 .3.7h1.7c0-.1-.1-.3-.2-.4.7-.1.8-.9 1.4-1l-.4.3c-.4.5 0 .6 0 .2 0-.3.7-.2.6-.7-.2-.4-.9.1-1.1.2-.7.4-1.2-.7-1.6-.1-.2.3-1.3.1-1.6.1.2.6.5.7.9.7M49.2 28.8c.4.6.3.1.3.7h1.7c0-.1-.1-.3-.2-.4.7-.1.8-.9 1.4-1l-.4.3c-.4.5 0 .6 0 .2 0-.3.7-.2.6-.7-.2-.3-.9.1-1.1.2-.7.4-1.2-.7-1.6-.1-.1.3-1.3.1-1.6.1.2.6.5.6.9.7M49 32c.4.6.3.1.3.7H51c0-.1-.1-.3-.2-.4.7-.1.8-.9 1.4-1l-.4.3c-.4.5 0 .6 0 .2 0-.3.7-.2.6-.7-.2-.3-.9.1-1.1.2-.7.4-1.2-.7-1.6-.1-.2.3-1.3.1-1.6.1.3.6.6.7.9.7M52.7 34.5c-.2-.4-.9.2-1.1.2H51c-.3 0-.2-.4-.5-.4-.4 0-.4.4-.9.4h-1.1c.1.2.1.3.4.4.6.2.7.2.7.8h1.7c0-.1-.1-.3-.2-.4.7-.1.8-.9 1.4-1 0 0-.9.6-.6.8 0 .1.9-.6.8-.8M52 38.1c-.3.2-.2.7-.1.5.2-.3.2-.3.5-.5 1-.7-1-.2-1.1-.2-.4 0-.5.1-.8-.2-.5-.5-.4.2-.7.2-.5.1-1.1 0-1.6 0 .1.2.1.3.4.4.6.2.7.2.7.8H51c0-.1-.1-.3-.2-.4.7-.1.8-.9 1.4-1 .4.1-.2.4-.2.4M52.1 41.3c-.3.2-.2.7-.1.5.2-.3.2-.3.5-.5 1-.7-1-.1-1.1-.1-.4 0-.5.1-.8-.2-.5-.5-.4.2-.7.2-.5.1-1.1 0-1.6 0 .1.2.1.3.4.4.6.2.7.2.7.8h1.7c0-.1-.1-.3-.2-.4.7-.1.8-.9 1.4-1 .3 0-.2.3-.2.3M46.9 42.9c.5-.6.3-.9.3-.9l-1.2-.6-.3.7.2.4s.4 1.1 1 .4M43.1 43c.2 0 1.4-.7 1.4-.7l-.1-.2-.4-.3s-1.3.5-1.2.4c-.1.1.2.8.3.8"/>
        <path d="M56.9 44c-1-.4-1.8-2.1-2.4-2.2s-1.3.9-1.3.9-3.3 3.8-8.5 3.9c-4.7.3-8.9-4.5-8.9-4.5s-.7-.6-1-.3c-.2.7-1.8 1.9-1.8 1.9s-.7.4-.6 1 1 1.2 1.2 1.3c.2 0 .7-.4.7-.4l.4-.4s4.6 4.4 10.1 4.3c5.3.2 10-4.3 10-4.3s.3-.1.4.5 1.1.2 1.3 0c.3-.2.9-.9.4-1.7"/>
    </g>
</svg>